<svg xmlns="http://www.w3.org/2000/svg" viewBox="0 0 1200 750" width="1200" height="750">
  <defs>
    <linearGradient id="bg" x1="0" y1="0" x2="1" y2="1">
      <stop offset="0" stop-color="#151033"/><stop offset="1" stop-color="#0a0719"/>
    </linearGradient>
    <linearGradient id="cardg" x1="0" y1="0" x2="1" y2="1">
      <stop offset="0" stop-color="#6366f1"/><stop offset="0.55" stop-color="#8b5cf6"/><stop offset="1" stop-color="#d946ef"/>
    </linearGradient>
    <filter id="blur" x="-50%" y="-50%" width="200%" height="200%"><feGaussianBlur stdDeviation="80"/></filter>
  </defs>
  <rect width="1200" height="750" fill="url(#bg)"/>
  <circle cx="200" cy="160" r="220" fill="#6366f1" opacity="0.22" filter="url(#blur)"/>
  <circle cx="1020" cy="620" r="230" fill="#d946ef" opacity="0.16" filter="url(#blur)"/>
  <!-- contactless waves -->
  <g stroke="#c084fc" fill="none" stroke-width="4" opacity="0.5">
    <path d="M880 180 a120 120 0 0 1 0 170"/>
    <path d="M920 140 a175 175 0 0 1 0 250"/>
    <path d="M960 100 a230 230 0 0 1 0 330"/>
  </g>
  <!-- bank card -->
  <g transform="translate(250 220) rotate(-8)">
    <rect width="560" height="340" rx="32" fill="url(#cardg)"/>
    <rect width="560" height="340" rx="32" fill="none" stroke="#ffffff" stroke-opacity="0.25"/>
    <circle cx="470" cy="70" r="34" fill="#ffffff" opacity="0.25"/>
    <circle cx="424" cy="70" r="34" fill="#ffffff" opacity="0.4"/>
    <rect x="48" y="120" width="76" height="58" rx="10" fill="#fcd34d" opacity="0.9"/>
    <rect x="60" y="132" width="52" height="34" rx="6" fill="none" stroke="#92710c" stroke-width="2"/>
    <text x="48" y="240" font-family="monospace" font-size="34" fill="#ffffff" letter-spacing="6">4290 11•• ••42 8816</text>
    <text x="48" y="300" font-family="sans-serif" font-weight="bold" font-size="24" fill="#ffffff" opacity="0.9">MERIDIAN · INSTANT</text>
  </g>
  <text x="84" y="120" font-family="sans-serif" font-weight="bold" font-size="38" fill="#ffffff">Meridian</text>
  <text x="84" y="156" font-family="monospace" font-size="22" fill="#b8b3e0">BIOMETRIC · ZERO-FEE TRANSFERS</text>
  <text x="84" y="680" font-family="monospace" font-size="24" fill="#b8b3e0">45K+ ACCOUNTS OPENED IN 6 MONTHS</text>
</svg>
