<svg xmlns="http://www.w3.org/2000/svg" viewBox="0 0 1200 750" width="1200" height="750">
  <defs>
    <linearGradient id="bg" x1="0" y1="0" x2="1" y2="1">
      <stop offset="0" stop-color="#171132"/><stop offset="1" stop-color="#0a0719"/>
    </linearGradient>
    <linearGradient id="line" x1="0" y1="0" x2="1" y2="0">
      <stop offset="0" stop-color="#8b5cf6"/><stop offset="1" stop-color="#e879f9"/>
    </linearGradient>
    <linearGradient id="fill" x1="0" y1="0" x2="0" y2="1">
      <stop offset="0" stop-color="#a855f7" stop-opacity="0.35"/><stop offset="1" stop-color="#a855f7" stop-opacity="0"/>
    </linearGradient>
    <filter id="blur" x="-50%" y="-50%" width="200%" height="200%"><feGaussianBlur stdDeviation="70"/></filter>
  </defs>
  <rect width="1200" height="750" fill="url(#bg)"/>
  <circle cx="950" cy="120" r="230" fill="#7c3aed" opacity="0.25" filter="url(#blur)"/>
  <circle cx="150" cy="650" r="200" fill="#d946ef" opacity="0.18" filter="url(#blur)"/>
  <g stroke="#ffffff" stroke-opacity="0.05"><path d="M0 190h1200M0 330h1200M0 470h1200M0 610h1200"/><path d="M200 0v750M400 0v750M600 0v750M800 0v750M1000 0v750"/></g>
  <g>
    <rect x="240" y="320" width="26" height="160" rx="4" fill="#34d399" opacity="0.8"/><rect x="249" y="280" width="8" height="240" rx="3" fill="#34d399" opacity="0.5"/>
    <rect x="320" y="380" width="26" height="120" rx="4" fill="#fb7185" opacity="0.8"/><rect x="329" y="350" width="8" height="190" rx="3" fill="#fb7185" opacity="0.5"/>
    <rect x="400" y="300" width="26" height="170" rx="4" fill="#34d399" opacity="0.8"/><rect x="409" y="260" width="8" height="250" rx="3" fill="#34d399" opacity="0.5"/>
    <rect x="480" y="250" width="26" height="150" rx="4" fill="#34d399" opacity="0.8"/><rect x="489" y="215" width="8" height="225" rx="3" fill="#34d399" opacity="0.5"/>
    <rect x="560" y="290" width="26" height="110" rx="4" fill="#fb7185" opacity="0.8"/><rect x="569" y="265" width="8" height="170" rx="3" fill="#fb7185" opacity="0.5"/>
  </g>
  <path d="M80 560 C220 520 300 420 420 440 C540 460 600 330 720 350 C840 370 900 240 1010 220 C1080 208 1120 190 1160 175 L1160 750 L80 750 Z" fill="url(#fill)"/>
  <path d="M80 560 C220 520 300 420 420 440 C540 460 600 330 720 350 C840 370 900 240 1010 220 C1080 208 1120 190 1160 175" stroke="url(#line)" stroke-width="6" fill="none" stroke-linecap="round"/>
  <circle cx="1010" cy="220" r="12" fill="#e879f9"/><circle cx="1010" cy="220" r="24" fill="#e879f9" opacity="0.25"/>
  <g font-family="monospace" font-size="26" fill="#b8b3e0">
    <text x="84" y="120" font-size="34" fill="#ffffff" font-weight="bold" font-family="sans-serif">NBL · 4,218.32</text>
    <text x="84" y="158" fill="#34d399">▲ +340% YTD</text>
  </g>
</svg>
