<svg xmlns="http://www.w3.org/2000/svg" viewBox="0 0 1200 750" width="1200" height="750">
  <defs>
    <linearGradient id="bg" x1="0" y1="0" x2="1" y2="1">
      <stop offset="0" stop-color="#120e2c"/><stop offset="1" stop-color="#0a0719"/>
    </linearGradient>
    <linearGradient id="edge" x1="0" y1="0" x2="1" y2="0">
      <stop offset="0" stop-color="#818cf8"/><stop offset="1" stop-color="#e879f9"/>
    </linearGradient>
    <filter id="blur" x="-50%" y="-50%" width="200%" height="200%"><feGaussianBlur stdDeviation="80"/></filter>
  </defs>
  <rect width="1200" height="750" fill="url(#bg)"/>
  <circle cx="600" cy="375" r="280" fill="#7c3aed" opacity="0.18" filter="url(#blur)"/>
  <g stroke="url(#edge)" stroke-opacity="0.5" stroke-width="2">
    <path d="M240 560 L430 380 M430 380 L370 190 M430 380 L640 300 M640 300 L370 190 M640 300 L820 450 M820 450 L430 380 M820 450 L1000 240 M640 300 L1000 240 M370 190 L640 120 M640 120 L1000 240 M240 560 L640 640 M640 640 L820 450 M640 640 L430 380"/>
  </g>
  <g>
    <circle cx="240" cy="560" r="14" fill="#818cf8"/><circle cx="240" cy="560" r="26" fill="#818cf8" opacity="0.2"/>
    <circle cx="430" cy="380" r="20" fill="#a855f7"/><circle cx="430" cy="380" r="38" fill="#a855f7" opacity="0.2"/>
    <circle cx="370" cy="190" r="12" fill="#c084fc"/><circle cx="370" cy="190" r="22" fill="#c084fc" opacity="0.2"/>
    <circle cx="640" cy="300" r="26" fill="#e879f9"/><circle cx="640" cy="300" r="48" fill="#e879f9" opacity="0.18"/>
    <circle cx="820" cy="450" r="16" fill="#f472b6"/><circle cx="820" cy="450" r="30" fill="#f472b6" opacity="0.2"/>
    <circle cx="1000" cy="240" r="18" fill="#a855f7"/><circle cx="1000" cy="240" r="34" fill="#a855f7" opacity="0.2"/>
    <circle cx="640" cy="120" r="10" fill="#818cf8"/>
    <circle cx="640" cy="640" r="12" fill="#c084fc"/>
  </g>
  <text x="84" y="120" font-family="sans-serif" font-weight="bold" font-size="40" fill="#ffffff">vertex</text>
  <text x="218" y="120" font-family="sans-serif" font-weight="bold" font-size="40" fill="#c084fc">.ai</text>
  <text x="84" y="158" font-family="monospace" font-size="22" fill="#b8b3e0">INFRASTRUCTURE FOR INTELLIGENCE</text>
  <text x="84" y="680" font-family="monospace" font-size="24" fill="#b8b3e0">BRAND · WEB · $12M RAISED</text>
</svg>
